# xmcd
#
# Track frame offsets: 
#        187
#        19990
#        39310
#        57990
#        80125
#        96255
#        113947
#        134665
#        150422
#        166852
#
# Disc length: 2509 seconds
#
# Revision: 2
# Processed by: cddbd v1.5.2PL0 Copyright (c) Steve Scherf et al.
# Submitted via: ExactAudioCopyFreeDBPlugin 1.0
#
DISCID=8009cb0a
DTITLE=William Lee Golden - American Vagabond
DYEAR=1986
DGENRE=Country
TTITLE0=Still In The Game
TTITLE1=Come On In (You Did the Best You Could Do)
TTITLE2=You Can't Take It With You
TTITLE3=Love Is the Only Way Out
TTITLE4=Music for My Soul
TTITLE5=American Vagabond
TTITLE6=Heroes
TTITLE7=Somebody Gotta Pay
TTITLE8=You Turn The Light On
TTITLE9=Let There Be Love
EXTD=
EXTT0=
EXTT1=
EXTT2=
EXTT3=
EXTT4=
EXTT5=
EXTT6=
EXTT7=
EXTT8=
EXTT9=
PLAYORDER=
